<svg width="24" height="19" viewBox="0 0 24 19" fill="none" xmlns="http://www.w3.org/2000/svg">
<path id="Vector" d="M20.4005 2.07819C23.0417 5.96144 24.346 10.3416 23.8584 15.3842C23.8564 15.4056 23.8453 15.4252 23.8277 15.438C21.8276 16.9067 19.8898 17.798 17.9792 18.389C17.9643 18.3936 17.9484 18.3933 17.9336 18.3883C17.9189 18.3834 17.9061 18.3739 17.897 18.3613C17.4556 17.7471 17.0545 17.0996 16.7032 16.4197C16.683 16.3796 16.7014 16.3314 16.7429 16.3156C17.3799 16.0756 17.9856 15.7879 18.5682 15.4474C18.6141 15.4205 18.617 15.3547 18.5746 15.3231C18.451 15.2313 18.3285 15.1349 18.2113 15.0384C18.1893 15.0206 18.1598 15.0171 18.135 15.0291C14.3526 16.7757 10.2091 16.7757 6.38201 15.0291C6.35716 15.018 6.32764 15.0218 6.3063 15.0393C6.18937 15.1358 6.06659 15.2313 5.94411 15.3231C5.90172 15.3547 5.90523 15.4205 5.95141 15.4474C6.53402 15.7815 7.13972 16.0756 7.77582 16.3168C7.81704 16.3325 7.83662 16.3796 7.81616 16.4197C7.47239 17.1005 7.07131 17.748 6.62172 18.3622C6.60213 18.387 6.56998 18.3984 6.53957 18.389C4.63799 17.798 2.70017 16.9067 0.700073 15.438C0.68341 15.4252 0.671425 15.4047 0.669671 15.3834C0.262169 11.0216 1.09267 6.60514 4.12438 2.07732C4.13169 2.06533 4.14279 2.05598 4.15566 2.05042C5.6474 1.3658 7.24554 0.862122 8.91589 0.574474C8.94629 0.569797 8.97669 0.583829 8.99248 0.610723C9.19886 0.976129 9.43477 1.44473 9.59438 1.82767C11.3551 1.55873 13.1432 1.55873 14.9407 1.82767C15.1003 1.45291 15.3281 0.976129 15.5336 0.610723C15.5409 0.597381 15.5522 0.586692 15.566 0.580183C15.5797 0.573673 15.5952 0.571675 15.6102 0.574474C17.2814 0.862999 18.8795 1.36667 20.3701 2.05042C20.3832 2.05598 20.3941 2.06533 20.4005 2.07819ZM10.4895 10.3714C10.5079 9.082 9.56778 8.01502 8.38766 8.01502C7.21719 8.01502 6.28613 9.07265 6.28613 10.3714C6.28613 11.67 7.2356 12.7276 8.38766 12.7276C9.55842 12.7276 10.4895 11.67 10.4895 10.3714ZM18.2601 10.3714C18.2785 9.082 17.3384 8.01502 16.1586 8.01502C14.9878 8.01502 14.0567 9.07265 14.0567 10.3714C14.0567 11.67 15.0062 12.7276 16.1586 12.7276C17.3384 12.7276 18.2601 11.67 18.2601 10.3714Z" fill="white"/>
</svg>
