<svg width="23" height="19" viewBox="0 0 23 19" fill="none" xmlns="http://www.w3.org/2000/svg">
<path id="XMLID_1_" d="M0.105225 16.3535C2.05073 17.6505 4.42858 18.4071 7.02259 18.4071C15.3451 18.4071 20.1007 11.3816 19.7765 5.00468C20.6412 4.35618 21.3978 3.59959 22.0463 2.73492C21.2897 3.05917 20.425 3.38342 19.4522 3.49151C20.425 2.95109 21.0735 2.08642 21.3978 1.00558C20.5331 1.546 19.5603 1.87025 18.5876 2.08642C17.7229 1.11366 16.534 0.573242 15.237 0.573242C12.4268 0.573242 10.2651 3.27534 10.9136 6.08552C7.13068 5.86935 3.88816 4.14001 1.6184 1.43791C0.429476 3.38342 0.969896 6.08552 3.02349 7.38253C2.2669 7.38253 1.6184 7.16636 0.969896 6.84211C0.969896 8.8957 2.37499 10.8412 4.53666 11.2735C3.88816 11.4897 3.23966 11.4897 2.48307 11.3816C3.02349 13.2191 4.75283 14.5161 6.69834 14.5161C4.86092 16.0292 2.48307 16.6777 0.105225 16.3535Z" fill="white"/>
</svg>
