<svg width="30" height="29" viewBox="0 0 30 29" fill="none" xmlns="http://www.w3.org/2000/svg">
<mask id="path-1-inside-1_58_6474" fill="white">
<path fill-rule="evenodd" clip-rule="evenodd" d="M0.777344 0.203125L4.2699 6.1696H19.8925C20.9552 6.1696 21.6595 7.27153 21.2132 8.23591L17.6581 15.9197H23.6973L29.1577 4.35638C30.0693 2.42572 28.661 0.203125 26.5259 0.203125H17.076L15.3882 1.60963C14.8485 2.05935 14.0646 2.05935 13.5249 1.60963L11.8371 0.203125H0.777344ZM29.3804 28.8026L24.7236 22.836H10.2652C9.2026 22.836 8.49829 21.7341 8.94449 20.7697L12.4997 13.0859H6.75148L1.09626 24.6098C0.147251 26.5436 1.55492 28.8026 3.70907 28.8026H13.0818L14.7696 27.396C15.3092 26.9463 16.0931 26.9463 16.6328 27.396L18.3206 28.8026H29.3804Z"/>
</mask>
<path fill-rule="evenodd" clip-rule="evenodd" d="M0.777344 0.203125L4.2699 6.1696H19.8925C20.9552 6.1696 21.6595 7.27153 21.2132 8.23591L17.6581 15.9197H23.6973L29.1577 4.35638C30.0693 2.42572 28.661 0.203125 26.5259 0.203125H17.076L15.3882 1.60963C14.8485 2.05935 14.0646 2.05935 13.5249 1.60963L11.8371 0.203125H0.777344ZM29.3804 28.8026L24.7236 22.836H10.2652C9.2026 22.836 8.49829 21.7341 8.94449 20.7697L12.4997 13.0859H6.75148L1.09626 24.6098C0.147251 26.5436 1.55492 28.8026 3.70907 28.8026H13.0818L14.7696 27.396C15.3092 26.9463 16.0931 26.9463 16.6328 27.396L18.3206 28.8026H29.3804Z" fill="#FDFDFD"/>
<path d="M4.2699 6.1696L4.06547 6.28926L4.13409 6.40648H4.2699V6.1696ZM0.777344 0.203125V-0.0337554H0.364202L0.572912 0.322792L0.777344 0.203125ZM21.2132 8.23591L20.9983 8.13643L20.9983 8.13644L21.2132 8.23591ZM17.6581 15.9197L17.4431 15.8202L17.2875 16.1566H17.6581V15.9197ZM23.6973 15.9197V16.1566H23.8474L23.9115 16.0208L23.6973 15.9197ZM29.1577 4.35638L29.3719 4.45753V4.45752L29.1577 4.35638ZM17.076 0.203125V-0.0337554H16.9902L16.9243 0.0211482L17.076 0.203125ZM15.3882 1.60963L15.2365 1.42765L15.2365 1.42765L15.3882 1.60963ZM13.5249 1.60963L13.6766 1.42765L13.6766 1.42765L13.5249 1.60963ZM11.8371 0.203125L11.9888 0.0211482L11.9229 -0.0337554H11.8371V0.203125ZM24.7236 22.836L24.9104 22.6903L24.8392 22.5991H24.7236V22.836ZM29.3804 28.8026V29.0395H29.8657L29.5671 28.6569L29.3804 28.8026ZM8.94449 20.7697L8.72951 20.6702L8.72951 20.6702L8.94449 20.7697ZM12.4997 13.0859L12.7147 13.1854L12.8703 12.8491H12.4997V13.0859ZM6.75148 13.0859V12.8491H6.60386L6.53883 12.9816L6.75148 13.0859ZM1.09626 24.6098L1.30892 24.7142H1.30892L1.09626 24.6098ZM13.0818 28.8026V29.0395H13.1675L13.2334 28.9846L13.0818 28.8026ZM14.7696 27.396L14.6179 27.214L14.6179 27.214L14.7696 27.396ZM16.6328 27.396L16.7845 27.214L16.7844 27.214L16.6328 27.396ZM18.3206 28.8026L18.169 28.9846L18.2348 29.0395H18.3206V28.8026ZM4.47434 6.04993L0.981775 0.0834582L0.572912 0.322792L4.06547 6.28926L4.47434 6.04993ZM19.8925 5.93272H4.2699V6.40648H19.8925V5.93272ZM21.4282 8.33538C21.9471 7.21402 21.1281 5.93272 19.8925 5.93272V6.40648C20.7822 6.40648 21.3718 7.32904 20.9983 8.13643L21.4282 8.33538ZM17.8731 16.0191L21.4282 8.33538L20.9983 8.13644L17.4431 15.8202L17.8731 16.0191ZM23.6973 15.6828H17.6581V16.1566H23.6973V15.6828ZM28.9435 4.25523L23.4831 15.8185L23.9115 16.0208L29.3719 4.45753L28.9435 4.25523ZM26.5259 0.440005C28.4873 0.440005 29.781 2.48169 28.9435 4.25523L29.3719 4.45752C30.3577 2.36974 28.8348 -0.0337554 26.5259 -0.0337554V0.440005ZM17.076 0.440005H26.5259V-0.0337554H17.076V0.440005ZM15.5398 1.79161L17.2276 0.385102L16.9243 0.0211482L15.2365 1.42765L15.5398 1.79161ZM13.3733 1.7916C14.0008 2.31453 14.9123 2.31453 15.5398 1.7916L15.2365 1.42765C14.7847 1.80417 14.1284 1.80417 13.6766 1.42765L13.3733 1.7916ZM11.6855 0.385102L13.3733 1.79161L13.6766 1.42765L11.9888 0.0211482L11.6855 0.385102ZM0.777344 0.440005H11.8371V-0.0337554H0.777344V0.440005ZM24.5369 22.9818L29.1936 28.9483L29.5671 28.6569L24.9104 22.6903L24.5369 22.9818ZM10.2652 23.0729H24.7236V22.5991H10.2652V23.0729ZM8.72951 20.6702C8.21068 21.7916 9.02963 23.0729 10.2652 23.0729V22.5991C9.37557 22.5991 8.78591 21.6766 9.15948 20.8692L8.72951 20.6702ZM12.2847 12.9865L8.72951 20.6702L9.15947 20.8692L12.7147 13.1854L12.2847 12.9865ZM6.75148 13.3228H12.4997V12.8491H6.75148V13.3228ZM1.30892 24.7142L6.96413 13.1903L6.53883 12.9816L0.883608 24.5054L1.30892 24.7142ZM3.70907 28.5657C1.73026 28.5657 0.437139 26.4906 1.30892 24.7142L0.883608 24.5054C-0.142638 26.5967 1.37959 29.0395 3.70907 29.0395V28.5657ZM13.0818 28.5657H3.70907V29.0395H13.0818V28.5657ZM14.6179 27.214L12.9301 28.6206L13.2334 28.9846L14.9212 27.578L14.6179 27.214ZM16.7844 27.214C16.1569 26.6911 15.2454 26.6911 14.6179 27.214L14.9212 27.578C15.373 27.2014 16.0293 27.2014 16.4811 27.578L16.7844 27.214ZM18.4723 28.6206L16.7845 27.214L16.4811 27.578L18.169 28.9846L18.4723 28.6206ZM29.3804 28.5657H18.3206V29.0395H29.3804V28.5657Z" fill="#005D46" mask="url(#path-1-inside-1_58_6474)"/>
</svg>
